<?xml version="1.0" encoding="UTF-8"?>
<svg id="Layer_1" data-name="Layer 1" xmlns="http://www.w3.org/2000/svg" viewBox="0 0 948.15 328.2">
  <defs>
    <style>
      .cls-1 {
        fill: #fff;
      }
    </style>
  </defs>
  <path class="cls-1" d="M0,274.98v-29.65c0-2.94,2.38-5.33,5.33-5.33h9.5c2.94,0,5.33,2.38,5.33,5.33v29.65c0,2.94-2.38,5.33-5.33,5.33H5.33c-2.94,0-5.33-2.38-5.33-5.33Z"/>
  <path class="cls-1" d="M0,322.98v-29.65c0-2.94,2.38-5.33,5.33-5.33h9.5c2.94,0,5.33,2.38,5.33,5.33v29.65c0,2.94-2.38,5.33-5.33,5.33H5.33c-2.94,0-5.33-2.38-5.33-5.33Z"/>
  <path class="cls-1" d="M32,274.98v-29.65c0-2.94,2.38-5.33,5.33-5.33h9.5c2.94,0,5.33,2.38,5.33,5.33v29.65c0,2.94-2.38,5.33-5.33,5.33h-9.5c-2.94,0-5.33-2.38-5.33-5.33Z"/>
  <path class="cls-1" d="M32,322.98v-29.65c0-2.94,2.38-5.33,5.33-5.33h9.5c2.94,0,5.33,2.38,5.33,5.33v29.65c0,2.94-2.38,5.33-5.33,5.33h-9.5c-2.94,0-5.33-2.38-5.33-5.33Z"/>
  <path class="cls-1" d="M64,274.98v-29.65c0-2.94,2.38-5.33,5.33-5.33h9.5c2.94,0,5.33,2.38,5.33,5.33v29.65c0,2.94-2.38,5.33-5.33,5.33h-9.5c-2.94,0-5.33-2.38-5.33-5.33Z"/>
  <path class="cls-1" d="M64,322.98v-29.65c0-2.94,2.38-5.33,5.33-5.33h9.5c2.94,0,5.33,2.38,5.33,5.33v29.65c0,2.94-2.38,5.33-5.33,5.33h-9.5c-2.94,0-5.33-2.38-5.33-5.33Z"/>
  <path class="cls-1" d="M192,274.98v-29.65c0-2.94,2.38-5.33,5.33-5.33h9.5c2.94,0,5.33,2.38,5.33,5.33v29.65c0,2.94-2.38,5.33-5.33,5.33h-9.5c-2.94,0-5.33-2.38-5.33-5.33Z"/>
  <path class="cls-1" d="M192,322.98v-29.65c0-2.94,2.38-5.33,5.33-5.33h9.5c2.94,0,5.33,2.38,5.33,5.33v29.65c0,2.94-2.38,5.33-5.33,5.33h-9.5c-2.94,0-5.33-2.38-5.33-5.33Z"/>
  <path class="cls-1" d="M224,274.98v-29.65c0-2.94,2.38-5.33,5.33-5.33h9.5c2.94,0,5.33,2.38,5.33,5.33v29.65c0,2.94-2.38,5.33-5.33,5.33h-9.5c-2.94,0-5.33-2.38-5.33-5.33Z"/>
  <path class="cls-1" d="M224,322.98v-29.65c0-2.94,2.38-5.33,5.33-5.33h9.5c2.94,0,5.33,2.38,5.33,5.33v29.65c0,2.94-2.38,5.33-5.33,5.33h-9.5c-2.94,0-5.33-2.38-5.33-5.33Z"/>
  <path class="cls-1" d="M160,130.98v-29.65c0-2.94,2.38-5.33,5.33-5.33h9.5c2.94,0,5.33,2.38,5.33,5.33v29.65c0,2.94-2.38,5.33-5.33,5.33h-9.5c-2.94,0-5.33-2.38-5.33-5.33Z"/>
  <path class="cls-1" d="M160,178.98v-29.65c0-2.94,2.38-5.33,5.33-5.33h9.5c2.94,0,5.33,2.38,5.33,5.33v29.65c0,2.94-2.38,5.33-5.33,5.33h-9.5c-2.94,0-5.33-2.38-5.33-5.33Z"/>
  <path class="cls-1" d="M192,130.98v-29.65c0-2.94,2.38-5.33,5.33-5.33h9.5c2.94,0,5.33,2.38,5.33,5.33v29.65c0,2.94-2.38,5.33-5.33,5.33h-9.5c-2.94,0-5.33-2.38-5.33-5.33Z"/>
  <path class="cls-1" d="M192,178.98v-29.65c0-2.94,2.38-5.33,5.33-5.33h9.5c2.94,0,5.33,2.38,5.33,5.33v29.65c0,2.94-2.38,5.33-5.33,5.33h-9.5c-2.94,0-5.33-2.38-5.33-5.33Z"/>
  <path class="cls-1" d="M32,226.98v-29.65c0-2.94,2.38-5.33,5.33-5.33h9.5c2.94,0,5.33,2.38,5.33,5.33v29.65c0,2.94-2.38,5.33-5.33,5.33h-9.5c-2.94,0-5.33-2.38-5.33-5.33Z"/>
  <path class="cls-1" d="M32,178.98v-29.65c0-2.94,2.38-5.33,5.33-5.33h9.5c2.94,0,5.33,2.38,5.33,5.33v29.65c0,2.94-2.38,5.33-5.33,5.33h-9.5c-2.94,0-5.33-2.38-5.33-5.33Z"/>
  <path class="cls-1" d="M64,178.98v-29.65c0-2.94,2.38-5.33,5.33-5.33h9.5c2.94,0,5.33,2.38,5.33,5.33v29.65c0,2.94-2.38,5.33-5.33,5.33h-9.5c-2.94,0-5.33-2.38-5.33-5.33Z"/>
  <path class="cls-1" d="M64,226.98v-29.65c0-2.94,2.38-5.33,5.33-5.33h9.5c2.94,0,5.33,2.38,5.33,5.33v29.65c0,2.94-2.38,5.33-5.33,5.33h-9.5c-2.94,0-5.33-2.38-5.33-5.33Z"/>
  <path class="cls-1" d="M96,178.98v-29.65c0-2.94,2.38-5.33,5.33-5.33h9.5c2.94,0,5.33,2.38,5.33,5.33v29.65c0,2.94-2.38,5.33-5.33,5.33h-9.5c-2.94,0-5.33-2.38-5.33-5.33Z"/>
  <path class="cls-1" d="M96,226.98v-29.65c0-2.94,2.38-5.33,5.33-5.33h9.5c2.94,0,5.33,2.38,5.33,5.33v29.65c0,2.94-2.38,5.33-5.33,5.33h-9.5c-2.94,0-5.33-2.38-5.33-5.33Z"/>
  <path class="cls-1" d="M64,130.98v-29.65c0-2.94,2.38-5.33,5.33-5.33h9.5c2.94,0,5.33,2.38,5.33,5.33v29.65c0,2.94-2.38,5.33-5.33,5.33h-9.5c-2.94,0-5.33-2.38-5.33-5.33Z"/>
  <path class="cls-1" d="M64,82.98v-29.65c0-2.94,2.38-5.33,5.33-5.33h9.5c2.94,0,5.33,2.38,5.33,5.33v29.65c0,2.94-2.38,5.33-5.33,5.33h-9.5c-2.94,0-5.33-2.38-5.33-5.33Z"/>
  <path class="cls-1" d="M96,82.98v-29.65c0-2.94,2.38-5.33,5.33-5.33h9.5c2.94,0,5.33,2.38,5.33,5.33v29.65c0,2.94-2.38,5.33-5.33,5.33h-9.5c-2.94,0-5.33-2.38-5.33-5.33Z"/>
  <path class="cls-1" d="M96,130.98v-29.65c0-2.94,2.38-5.33,5.33-5.33h9.5c2.94,0,5.33,2.38,5.33,5.33v29.65c0,2.94-2.38,5.33-5.33,5.33h-9.5c-2.94,0-5.33-2.38-5.33-5.33Z"/>
  <path class="cls-1" d="M128,82.98v-29.65c0-2.94,2.38-5.33,5.33-5.33h9.5c2.94,0,5.33,2.38,5.33,5.33v29.65c0,2.94-2.38,5.33-5.33,5.33h-9.5c-2.94,0-5.33-2.38-5.33-5.33Z"/>
  <path class="cls-1" d="M160,82.98v-29.65c0-2.94,2.38-5.33,5.33-5.33h9.5c2.94,0,5.33,2.38,5.33,5.33v29.65c0,2.94-2.38,5.33-5.33,5.33h-9.5c-2.94,0-5.33-2.38-5.33-5.33Z"/>
  <path class="cls-1" d="M96,34.98V5.33c0-2.94,2.38-5.33,5.33-5.33h9.5c2.94,0,5.33,2.38,5.33,5.33v29.65c0,2.94-2.38,5.33-5.33,5.33h-9.5c-2.94,0-5.33-2.38-5.33-5.33Z"/>
  <path class="cls-1" d="M128,34.98V5.33c0-2.94,2.38-5.33,5.33-5.33h9.5c2.94,0,5.33,2.38,5.33,5.33v29.65c0,2.94-2.38,5.33-5.33,5.33h-9.5c-2.94,0-5.33-2.38-5.33-5.33Z"/>
  <path class="cls-1" d="M128,130.98v-29.65c0-2.94,2.38-5.33,5.33-5.33h9.5c2.94,0,5.33,2.38,5.33,5.33v29.65c0,2.94-2.38,5.33-5.33,5.33h-9.5c-2.94,0-5.33-2.38-5.33-5.33Z"/>
  <path class="cls-1" d="M128,226.98v-29.65c0-2.94,2.38-5.33,5.33-5.33h9.5c2.94,0,5.33,2.38,5.33,5.33v29.65c0,2.94-2.38,5.33-5.33,5.33h-9.5c-2.94,0-5.33-2.38-5.33-5.33Z"/>
  <path class="cls-1" d="M160,226.98v-29.65c0-2.94,2.38-5.33,5.33-5.33h9.5c2.94,0,5.33,2.38,5.33,5.33v29.65c0,2.94-2.38,5.33-5.33,5.33h-9.5c-2.94,0-5.33-2.38-5.33-5.33Z"/>
  <path class="cls-1" d="M192,226.98v-29.65c0-2.94,2.38-5.33,5.33-5.33h9.5c2.94,0,5.33,2.38,5.33,5.33v29.65c0,2.94-2.38,5.33-5.33,5.33h-9.5c-2.94,0-5.33-2.38-5.33-5.33Z"/>
  <path class="cls-1" d="M224,226.98v-29.65c0-2.94,2.38-5.33,5.33-5.33h9.5c2.94,0,5.33,2.38,5.33,5.33v29.65c0,2.94-2.38,5.33-5.33,5.33h-9.5c-2.94,0-5.33-2.38-5.33-5.33Z"/>
  <path class="cls-1" d="M288,274.98v-29.65c0-2.94,2.38-5.33,5.33-5.33h9.5c2.94,0,5.33,2.38,5.33,5.33v29.65c0,2.94-2.38,5.33-5.33,5.33h-9.5c-2.94,0-5.33-2.38-5.33-5.33Z"/>
  <path class="cls-1" d="M288,226.98v-29.65c0-2.94,2.38-5.33,5.33-5.33h9.5c2.94,0,5.33,2.38,5.33,5.33v29.65c0,2.94-2.38,5.33-5.33,5.33h-9.5c-2.94,0-5.33-2.38-5.33-5.33Z"/>
  <path class="cls-1" d="M320,274.98v-29.65c0-2.94,2.38-5.33,5.33-5.33h9.5c2.94,0,5.33,2.38,5.33,5.33v29.65c0,2.94-2.38,5.33-5.33,5.33h-9.5c-2.94,0-5.33-2.38-5.33-5.33Z"/>
  <path class="cls-1" d="M320,322.98v-29.65c0-2.94,2.38-5.33,5.33-5.33h9.5c2.94,0,5.33,2.38,5.33,5.33v29.65c0,2.94-2.38,5.33-5.33,5.33h-9.5c-2.94,0-5.33-2.38-5.33-5.33Z"/>
  <path class="cls-1" d="M320,226.98v-29.65c0-2.94,2.38-5.33,5.33-5.33h9.5c2.94,0,5.33,2.38,5.33,5.33v29.65c0,2.94-2.38,5.33-5.33,5.33h-9.5c-2.94,0-5.33-2.38-5.33-5.33Z"/>
  <path class="cls-1" d="M352,274.98v-29.65c0-2.94,2.38-5.33,5.33-5.33h9.5c2.94,0,5.33,2.38,5.33,5.33v29.65c0,2.94-2.38,5.33-5.33,5.33h-9.5c-2.94,0-5.33-2.38-5.33-5.33Z"/>
  <path class="cls-1" d="M384,322.98v-29.65c0-2.94,2.38-5.33,5.33-5.33h9.5c2.94,0,5.33,2.38,5.33,5.33v29.65c0,2.94-2.38,5.33-5.33,5.33h-9.5c-2.94,0-5.33-2.38-5.33-5.33Z"/>
  <path class="cls-1" d="M416,322.98v-29.65c0-2.94,2.38-5.33,5.33-5.33h9.5c2.94,0,5.33,2.38,5.33,5.33v29.65c0,2.94-2.38,5.33-5.33,5.33h-9.5c-2.94,0-5.33-2.38-5.33-5.33Z"/>
  <path class="cls-1" d="M448,322.98v-29.65c0-2.94,2.38-5.33,5.33-5.33h9.5c2.94,0,5.33,2.38,5.33,5.33v29.65c0,2.94-2.38,5.33-5.33,5.33h-9.5c-2.94,0-5.33-2.38-5.33-5.33Z"/>
  <path class="cls-1" d="M480,322.98v-29.65c0-2.94,2.38-5.33,5.33-5.33h9.5c2.94,0,5.33,2.38,5.33,5.33v29.65c0,2.94-2.38,5.33-5.33,5.33h-9.5c-2.94,0-5.33-2.38-5.33-5.33Z"/>
  <path class="cls-1" d="M352,322.98v-29.65c0-2.94,2.38-5.33,5.33-5.33h9.5c2.94,0,5.33,2.38,5.33,5.33v29.65c0,2.94-2.38,5.33-5.33,5.33h-9.5c-2.94,0-5.33-2.38-5.33-5.33Z"/>
  <path class="cls-1" d="M352,226.98v-29.65c0-2.94,2.38-5.33,5.33-5.33h9.5c2.94,0,5.33,2.38,5.33,5.33v29.65c0,2.94-2.38,5.33-5.33,5.33h-9.5c-2.94,0-5.33-2.38-5.33-5.33Z"/>
  <path class="cls-1" d="M288,178.98v-29.65c0-2.94,2.38-5.33,5.33-5.33h9.5c2.94,0,5.33,2.38,5.33,5.33v29.65c0,2.94-2.38,5.33-5.33,5.33h-9.5c-2.94,0-5.33-2.38-5.33-5.33Z"/>
  <path class="cls-1" d="M288,130.98v-29.65c0-2.94,2.38-5.33,5.33-5.33h9.5c2.94,0,5.33,2.38,5.33,5.33v29.65c0,2.94-2.38,5.33-5.33,5.33h-9.5c-2.94,0-5.33-2.38-5.33-5.33Z"/>
  <path class="cls-1" d="M320,178.98v-29.65c0-2.94,2.38-5.33,5.33-5.33h9.5c2.94,0,5.33,2.38,5.33,5.33v29.65c0,2.94-2.38,5.33-5.33,5.33h-9.5c-2.94,0-5.33-2.38-5.33-5.33Z"/>
  <path class="cls-1" d="M320,130.98v-29.65c0-2.94,2.38-5.33,5.33-5.33h9.5c2.94,0,5.33,2.38,5.33,5.33v29.65c0,2.94-2.38,5.33-5.33,5.33h-9.5c-2.94,0-5.33-2.38-5.33-5.33Z"/>
  <path class="cls-1" d="M352,178.98v-29.65c0-2.94,2.38-5.33,5.33-5.33h9.5c2.94,0,5.33,2.38,5.33,5.33v29.65c0,2.94-2.38,5.33-5.33,5.33h-9.5c-2.94,0-5.33-2.38-5.33-5.33Z"/>
  <path class="cls-1" d="M352,130.98v-29.65c0-2.94,2.38-5.33,5.33-5.33h9.5c2.94,0,5.33,2.38,5.33,5.33v29.65c0,2.94-2.38,5.33-5.33,5.33h-9.5c-2.94,0-5.33-2.38-5.33-5.33Z"/>
  <path class="cls-1" d="M288,82.98v-29.65c0-2.94,2.38-5.33,5.33-5.33h9.5c2.94,0,5.33,2.38,5.33,5.33v29.65c0,2.94-2.38,5.33-5.33,5.33h-9.5c-2.94,0-5.33-2.38-5.33-5.33Z"/>
  <path class="cls-1" d="M288,34.98V5.33c0-2.94,2.38-5.33,5.33-5.33h9.5c2.94,0,5.33,2.38,5.33,5.33v29.65c0,2.94-2.38,5.33-5.33,5.33h-9.5c-2.94,0-5.33-2.38-5.33-5.33Z"/>
  <path class="cls-1" d="M320,82.98v-29.65c0-2.94,2.38-5.33,5.33-5.33h9.5c2.94,0,5.33,2.38,5.33,5.33v29.65c0,2.94-2.38,5.33-5.33,5.33h-9.5c-2.94,0-5.33-2.38-5.33-5.33Z"/>
  <path class="cls-1" d="M320,34.98V5.33c0-2.94,2.38-5.33,5.33-5.33h9.5c2.94,0,5.33,2.38,5.33,5.33v29.65c0,2.94-2.38,5.33-5.33,5.33h-9.5c-2.94,0-5.33-2.38-5.33-5.33Z"/>
  <path class="cls-1" d="M352,82.98v-29.65c0-2.94,2.38-5.33,5.33-5.33h9.5c2.94,0,5.33,2.38,5.33,5.33v29.65c0,2.94-2.38,5.33-5.33,5.33h-9.5c-2.94,0-5.33-2.38-5.33-5.33Z"/>
  <path class="cls-1" d="M512,274.98v-29.65c0-2.94,2.38-5.33,5.33-5.33h9.5c2.94,0,5.33,2.38,5.33,5.33v29.65c0,2.94-2.38,5.33-5.33,5.33h-9.5c-2.94,0-5.33-2.38-5.33-5.33Z"/>
  <path class="cls-1" d="M512,322.98v-29.65c0-2.94,2.38-5.33,5.33-5.33h9.5c2.94,0,5.33,2.38,5.33,5.33v29.65c0,2.94-2.38,5.33-5.33,5.33h-9.5c-2.94,0-5.33-2.38-5.33-5.33Z"/>
  <path class="cls-1" d="M512,226.98v-29.65c0-2.94,2.38-5.33,5.33-5.33h9.5c2.94,0,5.33,2.38,5.33,5.33v29.65c0,2.94-2.38,5.33-5.33,5.33h-9.5c-2.94,0-5.33-2.38-5.33-5.33Z"/>
  <path class="cls-1" d="M544,274.98v-29.65c0-2.94,2.38-5.33,5.33-5.33h9.5c2.94,0,5.33,2.38,5.33,5.33v29.65c0,2.94-2.38,5.33-5.33,5.33h-9.5c-2.94,0-5.33-2.38-5.33-5.33Z"/>
  <path class="cls-1" d="M544,322.98v-29.65c0-2.94,2.38-5.33,5.33-5.33h9.5c2.94,0,5.33,2.38,5.33,5.33v29.65c0,2.94-2.38,5.33-5.33,5.33h-9.5c-2.94,0-5.33-2.38-5.33-5.33Z"/>
  <path class="cls-1" d="M544,226.98v-29.65c0-2.94,2.38-5.33,5.33-5.33h9.5c2.94,0,5.33,2.38,5.33,5.33v29.65c0,2.94-2.38,5.33-5.33,5.33h-9.5c-2.94,0-5.33-2.38-5.33-5.33Z"/>
  <path class="cls-1" d="M512,178.98v-29.65c0-2.94,2.38-5.33,5.33-5.33h9.5c2.94,0,5.33,2.38,5.33,5.33v29.65c0,2.94-2.38,5.33-5.33,5.33h-9.5c-2.94,0-5.33-2.38-5.33-5.33Z"/>
  <path class="cls-1" d="M512,130.98v-29.65c0-2.94,2.38-5.33,5.33-5.33h9.5c2.94,0,5.33,2.38,5.33,5.33v29.65c0,2.94-2.38,5.33-5.33,5.33h-9.5c-2.94,0-5.33-2.38-5.33-5.33Z"/>
  <path class="cls-1" d="M544,178.98v-29.65c0-2.94,2.38-5.33,5.33-5.33h9.5c2.94,0,5.33,2.38,5.33,5.33v29.65c0,2.94-2.38,5.33-5.33,5.33h-9.5c-2.94,0-5.33-2.38-5.33-5.33Z"/>
  <path class="cls-1" d="M544,130.98v-29.65c0-2.94,2.38-5.33,5.33-5.33h9.5c2.94,0,5.33,2.38,5.33,5.33v29.65c0,2.94-2.38,5.33-5.33,5.33h-9.5c-2.94,0-5.33-2.38-5.33-5.33Z"/>
  <path class="cls-1" d="M512,82.98v-29.65c0-2.94,2.38-5.33,5.33-5.33h9.5c2.94,0,5.33,2.38,5.33,5.33v29.65c0,2.94-2.38,5.33-5.33,5.33h-9.5c-2.94,0-5.33-2.38-5.33-5.33Z"/>
  <path class="cls-1" d="M544,82.98v-29.65c0-2.94,2.38-5.33,5.33-5.33h9.5c2.94,0,5.33,2.38,5.33,5.33v29.65c0,2.94-2.38,5.33-5.33,5.33h-9.5c-2.94,0-5.33-2.38-5.33-5.33Z"/>
  <path class="cls-1" d="M512,34.98V5.33c0-2.94,2.38-5.33,5.33-5.33h9.5c2.94,0,5.33,2.38,5.33,5.33v29.65c0,2.94-2.38,5.33-5.33,5.33h-9.5c-2.94,0-5.33-2.38-5.33-5.33Z"/>
  <path class="cls-1" d="M544,34.98V5.33c0-2.94,2.38-5.33,5.33-5.33h9.5c2.94,0,5.33,2.38,5.33,5.33v29.65c0,2.94-2.38,5.33-5.33,5.33h-9.5c-2.94,0-5.33-2.38-5.33-5.33Z"/>
  <path class="cls-1" d="M576,34.98V5.33c0-2.94,2.38-5.33,5.33-5.33h9.5c2.94,0,5.33,2.38,5.33,5.33v29.65c0,2.94-2.38,5.33-5.33,5.33h-9.5c-2.94,0-5.33-2.38-5.33-5.33Z"/>
  <path class="cls-1" d="M608,34.98V5.33c0-2.94,2.38-5.33,5.33-5.33h9.5c2.94,0,5.33,2.38,5.33,5.33v29.65c0,2.94-2.38,5.33-5.33,5.33h-9.5c-2.94,0-5.33-2.38-5.33-5.33Z"/>
  <path class="cls-1" d="M640,34.98V5.33c0-2.94,2.38-5.33,5.33-5.33h9.5c2.94,0,5.33,2.38,5.33,5.33v29.65c0,2.94-2.38,5.33-5.33,5.33h-9.5c-2.94,0-5.33-2.38-5.33-5.33Z"/>
  <path class="cls-1" d="M672,34.98V5.33c0-2.94,2.38-5.33,5.33-5.33h9.5c2.94,0,5.33,2.38,5.33,5.33v29.65c0,2.94-2.38,5.33-5.33,5.33h-9.5c-2.94,0-5.33-2.38-5.33-5.33Z"/>
  <path class="cls-1" d="M576,178.98v-29.65c0-2.94,2.38-5.33,5.33-5.33h9.5c2.94,0,5.33,2.38,5.33,5.33v29.65c0,2.94-2.38,5.33-5.33,5.33h-9.5c-2.94,0-5.33-2.38-5.33-5.33Z"/>
  <path class="cls-1" d="M608,178.98v-29.65c0-2.94,2.38-5.33,5.33-5.33h9.5c2.94,0,5.33,2.38,5.33,5.33v29.65c0,2.94-2.38,5.33-5.33,5.33h-9.5c-2.94,0-5.33-2.38-5.33-5.33Z"/>
  <path class="cls-1" d="M640,178.98v-29.65c0-2.94,2.38-5.33,5.33-5.33h9.5c2.94,0,5.33,2.38,5.33,5.33v29.65c0,2.94-2.38,5.33-5.33,5.33h-9.5c-2.94,0-5.33-2.38-5.33-5.33Z"/>
  <path class="cls-1" d="M672,178.98v-29.65c0-2.94,2.38-5.33,5.33-5.33h9.5c2.94,0,5.33,2.38,5.33,5.33v29.65c0,2.94-2.38,5.33-5.33,5.33h-9.5c-2.94,0-5.33-2.38-5.33-5.33Z"/>
  <path class="cls-1" d="M576,322.98v-29.65c0-2.94,2.38-5.33,5.33-5.33h9.5c2.94,0,5.33,2.38,5.33,5.33v29.65c0,2.94-2.38,5.33-5.33,5.33h-9.5c-2.94,0-5.33-2.38-5.33-5.33Z"/>
  <path class="cls-1" d="M608,322.98v-29.65c0-2.94,2.38-5.33,5.33-5.33h9.5c2.94,0,5.33,2.38,5.33,5.33v29.65c0,2.94-2.38,5.33-5.33,5.33h-9.5c-2.94,0-5.33-2.38-5.33-5.33Z"/>
  <path class="cls-1" d="M640,322.98v-29.65c0-2.94,2.38-5.33,5.33-5.33h9.5c2.94,0,5.33,2.38,5.33,5.33v29.65c0,2.94-2.38,5.33-5.33,5.33h-9.5c-2.94,0-5.33-2.38-5.33-5.33Z"/>
  <path class="cls-1" d="M672,322.98v-29.65c0-2.94,2.38-5.33,5.33-5.33h9.5c2.94,0,5.33,2.38,5.33,5.33v29.65c0,2.94-2.38,5.33-5.33,5.33h-9.5c-2.94,0-5.33-2.38-5.33-5.33Z"/>
  <path class="cls-1" d="M704,322.98v-29.65c0-2.94,2.38-5.33,5.33-5.33h9.5c2.94,0,5.33,2.38,5.33,5.33v29.65c0,2.94-2.38,5.33-5.33,5.33h-9.5c-2.94,0-5.33-2.38-5.33-5.33Z"/>
  <path class="cls-1" d="M736,322.98v-29.65c0-2.94,2.38-5.33,5.33-5.33h9.5c2.94,0,5.33,2.38,5.33,5.33v29.65c0,2.94-2.38,5.33-5.33,5.33h-9.5c-2.94,0-5.33-2.38-5.33-5.33Z"/>
  <path class="cls-1" d="M768,322.98v-29.65c0-2.94,2.38-5.33,5.33-5.33h9.5c2.94,0,5.33,2.38,5.33,5.33v29.65c0,2.94-2.38,5.33-5.33,5.33h-9.5c-2.94,0-5.33-2.38-5.33-5.33Z"/>
  <path class="cls-1" d="M768,226.98v-29.65c0-2.94,2.38-5.33,5.33-5.33h9.5c2.94,0,5.33,2.38,5.33,5.33v29.65c0,2.94-2.38,5.33-5.33,5.33h-9.5c-2.94,0-5.33-2.38-5.33-5.33Z"/>
  <path class="cls-1" d="M800,226.98v-29.65c0-2.94,2.38-5.33,5.33-5.33h9.5c2.94,0,5.33,2.38,5.33,5.33v29.65c0,2.94-2.38,5.33-5.33,5.33h-9.5c-2.94,0-5.33-2.38-5.33-5.33Z"/>
  <path class="cls-1" d="M832,226.98v-29.65c0-2.94,2.38-5.33,5.33-5.33h9.5c2.94,0,5.33,2.38,5.33,5.33v29.65c0,2.94-2.38,5.33-5.33,5.33h-9.5c-2.94,0-5.33-2.38-5.33-5.33Z"/>
  <path class="cls-1" d="M864,226.98v-29.65c0-2.94,2.38-5.33,5.33-5.33h9.5c2.94,0,5.33,2.38,5.33,5.33v29.65c0,2.94-2.38,5.33-5.33,5.33h-9.5c-2.94,0-5.33-2.38-5.33-5.33Z"/>
  <path class="cls-1" d="M800,130.98v-29.65c0-2.94,2.38-5.33,5.33-5.33h9.5c2.94,0,5.33,2.38,5.33,5.33v29.65c0,2.94-2.38,5.33-5.33,5.33h-9.5c-2.94,0-5.33-2.38-5.33-5.33Z"/>
  <path class="cls-1" d="M832,130.98v-29.65c0-2.94,2.38-5.33,5.33-5.33h9.5c2.94,0,5.33,2.38,5.33,5.33v29.65c0,2.94-2.38,5.33-5.33,5.33h-9.5c-2.94,0-5.33-2.38-5.33-5.33Z"/>
  <path class="cls-1" d="M864,130.98v-29.65c0-2.94,2.38-5.33,5.33-5.33h9.5c2.94,0,5.33,2.38,5.33,5.33v29.65c0,2.94-2.38,5.33-5.33,5.33h-9.5c-2.94,0-5.33-2.38-5.33-5.33Z"/>
  <path class="cls-1" d="M896,130.98v-29.65c0-2.94,2.38-5.33,5.33-5.33h9.5c2.94,0,5.33,2.38,5.33,5.33v29.65c0,2.94-2.38,5.33-5.33,5.33h-9.5c-2.94,0-5.33-2.38-5.33-5.33Z"/>
  <path class="cls-1" d="M864,82.98v-29.65c0-2.94,2.38-5.33,5.33-5.33h9.5c2.94,0,5.33,2.38,5.33,5.33v29.65c0,2.94-2.38,5.33-5.33,5.33h-9.5c-2.94,0-5.33-2.38-5.33-5.33Z"/>
  <path class="cls-1" d="M896,82.98v-29.65c0-2.94,2.38-5.33,5.33-5.33h9.5c2.94,0,5.33,2.38,5.33,5.33v29.65c0,2.94-2.38,5.33-5.33,5.33h-9.5c-2.94,0-5.33-2.38-5.33-5.33Z"/>
  <path class="cls-1" d="M928,82.98v-29.65c0-2.94,2.38-5.33,5.33-5.33h9.5c2.94,0,5.33,2.38,5.33,5.33v29.65c0,2.94-2.38,5.33-5.33,5.33h-9.5c-2.94,0-5.33-2.38-5.33-5.33Z"/>
  <path class="cls-1" d="M896,34.98V5.33c0-2.94,2.38-5.33,5.33-5.33h9.5c2.94,0,5.33,2.38,5.33,5.33v29.65c0,2.94-2.38,5.33-5.33,5.33h-9.5c-2.94,0-5.33-2.38-5.33-5.33Z"/>
  <path class="cls-1" d="M928,34.98V5.33c0-2.94,2.38-5.33,5.33-5.33h9.5c2.94,0,5.33,2.38,5.33,5.33v29.65c0,2.94-2.38,5.33-5.33,5.33h-9.5c-2.94,0-5.33-2.38-5.33-5.33Z"/>
  <path class="cls-1" d="M800,178.98v-29.65c0-2.94,2.38-5.33,5.33-5.33h9.5c2.94,0,5.33,2.38,5.33,5.33v29.65c0,2.94-2.38,5.33-5.33,5.33h-9.5c-2.94,0-5.33-2.38-5.33-5.33Z"/>
  <path class="cls-1" d="M832,178.98v-29.65c0-2.94,2.38-5.33,5.33-5.33h9.5c2.94,0,5.33,2.38,5.33,5.33v29.65c0,2.94-2.38,5.33-5.33,5.33h-9.5c-2.94,0-5.33-2.38-5.33-5.33Z"/>
  <path class="cls-1" d="M864,178.98v-29.65c0-2.94,2.38-5.33,5.33-5.33h9.5c2.94,0,5.33,2.38,5.33,5.33v29.65c0,2.94-2.38,5.33-5.33,5.33h-9.5c-2.94,0-5.33-2.38-5.33-5.33Z"/>
  <path class="cls-1" d="M896,274.98v-29.65c0-2.94,2.38-5.33,5.33-5.33h9.5c2.94,0,5.33,2.38,5.33,5.33v29.65c0,2.94-2.38,5.33-5.33,5.33h-9.5c-2.94,0-5.33-2.38-5.33-5.33Z"/>
  <path class="cls-1" d="M736,34.98V5.33c0-2.94,2.38-5.33,5.33-5.33h9.5c2.94,0,5.33,2.38,5.33,5.33v29.65c0,2.94-2.38,5.33-5.33,5.33h-9.5c-2.94,0-5.33-2.38-5.33-5.33Z"/>
  <path class="cls-1" d="M768,82.98v-29.65c0-2.94,2.38-5.33,5.33-5.33h9.5c2.94,0,5.33,2.38,5.33,5.33v29.65c0,2.94-2.38,5.33-5.33,5.33h-9.5c-2.94,0-5.33-2.38-5.33-5.33Z"/>
  <path class="cls-1" d="M928,322.98v-29.65c0-2.94,2.38-5.33,5.33-5.33h9.5c2.94,0,5.33,2.38,5.33,5.33v29.65c0,2.94-2.38,5.33-5.33,5.33h-9.5c-2.94,0-5.33-2.38-5.33-5.33Z"/>
  <path class="cls-1" d="M736,274.98v-29.65c0-2.94,2.38-5.33,5.33-5.33h9.5c2.94,0,5.33,2.38,5.33,5.33v29.65c0,2.94-2.38,5.33-5.33,5.33h-9.5c-2.94,0-5.33-2.38-5.33-5.33Z"/>
  <path class="cls-1" d="M768,274.98v-29.65c0-2.94,2.38-5.33,5.33-5.33h9.5c2.94,0,5.33,2.38,5.33,5.33v29.65c0,2.94-2.38,5.33-5.33,5.33h-9.5c-2.94,0-5.33-2.38-5.33-5.33Z"/>
  <path class="cls-1" d="M800,274.98v-29.65c0-2.94,2.38-5.33,5.33-5.33h9.5c2.94,0,5.33,2.38,5.33,5.33v29.65c0,2.94-2.38,5.33-5.33,5.33h-9.5c-2.94,0-5.33-2.38-5.33-5.33Z"/>
</svg>