# Blender 4.3.0
# www.blender.org
mtllib alex.mtl
o Text
v 0.516860 0.246727 0.071938
v 0.692132 0.246727 0.071938
v 0.783456 0.088315 0.071938
v 0.871970 0.246727 0.071938
v 1.045487 0.246727 0.071938
v 0.885318 -0.002658 0.071938
v 1.060590 -0.268201 0.071938
v 0.881805 -0.268201 0.071938
v 0.780295 -0.102763 0.071938
v 0.678433 -0.268201 0.071938
v 0.500703 -0.268201 0.071938
v 0.678433 0.000152 0.071938
v 0.032490 0.246727 0.071938
v 0.458904 0.246727 0.071938
v 0.458904 0.136787 0.071938
v 0.191956 0.136787 0.071938
v 0.191956 0.054947 0.071938
v 0.439586 0.054947 0.071938
v 0.439586 -0.050076 0.071938
v 0.191956 -0.050076 0.071938
v 0.191956 -0.151587 0.071938
v 0.466632 -0.151587 0.071938
v 0.466632 -0.268201 0.071938
v 0.032490 -0.268201 0.071938
v -0.446962 0.246727 0.071938
v -0.287847 0.246727 0.071938
v -0.287847 -0.141400 0.071938
v -0.039515 -0.141400 0.071938
v -0.039515 -0.268201 0.071938
v -0.446962 -0.268201 0.071938
v -0.689673 -0.183199 0.071938
v -0.870917 -0.183199 0.071938
v -0.895855 -0.268201 0.071938
v -1.058483 -0.268201 0.071938
v -0.864946 0.246727 0.071938
v -0.691430 0.246727 0.071938
v -0.497893 -0.268201 0.071938
v -0.664384 -0.268201 0.071938
v -0.723042 -0.071854 0.071938
v -0.779944 0.113254 0.071938
v -0.836495 -0.071854 0.071938
v 0.516860 0.246727 0.012271
v 0.692132 0.246727 0.012271
v 0.783456 0.088315 0.012271
v 0.871970 0.246727 0.012271
v 1.045487 0.246727 0.012271
v 0.885318 -0.002658 0.012271
v 1.060590 -0.268201 0.012271
v 0.881805 -0.268201 0.012271
v 0.780295 -0.102763 0.012271
v 0.678433 -0.268201 0.012271
v 0.500703 -0.268201 0.012271
v 0.678433 0.000152 0.012271
v 0.032490 0.246727 0.012271
v 0.458904 0.246727 0.012271
v 0.458904 0.136787 0.012271
v 0.191956 0.136787 0.012271
v 0.191956 0.054947 0.012271
v 0.439586 0.054947 0.012271
v 0.439586 -0.050076 0.012271
v 0.191956 -0.050076 0.012271
v 0.191956 -0.151587 0.012271
v 0.466632 -0.151587 0.012271
v 0.466632 -0.268201 0.012271
v 0.032490 -0.268201 0.012271
v -0.446962 0.246727 0.012271
v -0.287847 0.246727 0.012271
v -0.287847 -0.141400 0.012271
v -0.039515 -0.141400 0.012271
v -0.039515 -0.268201 0.012271
v -0.446962 -0.268201 0.012271
v -0.689673 -0.183199 0.012271
v -0.870917 -0.183199 0.012271
v -0.895855 -0.268201 0.012271
v -1.058483 -0.268201 0.012271
v -0.864946 0.246727 0.012271
v -0.691430 0.246727 0.012271
v -0.497893 -0.268201 0.012271
v -0.664384 -0.268201 0.012271
v -0.723042 -0.071854 0.012271
v -0.779944 0.113254 0.012271
v -0.836495 -0.071854 0.012271
vn -0.0000 -0.0000 1.0000
vn -0.0000 -0.0000 -1.0000
vn -0.0000 1.0000 -0.0000
vn -0.0000 -1.0000 -0.0000
vn -0.8364 -0.5481 -0.0000
vn 1.0000 -0.0000 -0.0000
vn -1.0000 -0.0000 -0.0000
vn 0.8346 0.5509 -0.0000
vn 0.9596 -0.2815 -0.0000
vn 0.9361 0.3518 -0.0000
vn -0.9585 -0.2852 -0.0000
vn 0.8663 0.4994 -0.0000
vn 0.8515 -0.5243 -0.0000
vn -0.8730 0.4878 -0.0000
vn 0.9564 -0.2922 -0.0000
vn -0.8523 -0.5230 -0.0000
vn -0.9559 -0.2938 -0.0000
vn 0.8414 -0.5404 -0.0000
vn -0.9361 0.3518 -0.0000
vn -0.8337 0.5522 -0.0000
vt 1.000000 0.000000
vt 0.090909 0.000000
vt 0.000000 0.000000
vt 0.181818 0.000000
vt 0.363636 0.000000
vt 0.272727 0.000000
vt 0.454545 0.000000
vt 0.909091 0.000000
vt 0.727273 0.000000
vt 0.545455 0.000000
vt 0.818182 0.000000
vt 0.636364 0.000000
vt 0.200000 0.000000
vt 0.400000 0.000000
vt 0.600000 0.000000
vt 0.800000 0.000000
vt 0.300000 0.000000
vt 0.500000 0.000000
vt 0.900000 0.000000
vt 0.100000 0.000000
vt 0.700000 0.000000
s 0
usemtl Material.001
f 12/1/1 2/2/1 1/3/1
f 12/1/1 3/4/1 2/2/1
f 3/4/1 5/5/1 4/6/1
f 3/4/1 6/7/1 5/5/1
f 12/1/1 6/7/1 3/4/1
f 11/8/1 6/7/1 12/1/1
f 11/8/1 9/9/1 6/7/1
f 9/9/1 7/10/1 6/7/1
f 11/8/1 10/11/1 9/9/1
f 8/12/1 7/10/1 9/9/1
f 24/1/1 16/6/1 13/3/1
f 16/6/1 14/2/1 13/3/1
f 16/6/1 15/4/1 14/2/1
f 24/1/1 17/5/1 16/6/1
f 24/1/1 20/12/1 17/5/1
f 20/12/1 18/7/1 17/5/1
f 20/12/1 19/10/1 18/7/1
f 24/1/1 21/9/1 20/12/1
f 24/1/1 22/11/1 21/9/1
f 24/1/1 23/8/1 22/11/1
f 30/1/1 26/13/1 25/3/1
f 30/1/1 27/14/1 26/13/1
f 30/1/1 28/15/1 27/14/1
f 30/1/1 29/16/1 28/15/1
f 34/17/1 36/18/1 35/14/1
f 34/17/1 40/19/1 36/18/1
f 40/19/1 37/15/1 36/18/1
f 34/17/1 41/1/1 40/19/1
f 39/16/1 37/15/1 40/19/1
f 34/17/1 39/16/1 41/1/1
f 34/17/1 32/20/1 39/16/1
f 32/20/1 31/3/1 39/16/1
f 31/3/1 37/15/1 39/16/1
f 34/17/1 33/13/1 32/20/1
f 38/21/1 37/15/1 31/3/1
f 53/1/2 42/3/2 43/2/2
f 53/1/2 43/2/2 44/4/2
f 44/4/2 45/6/2 46/5/2
f 44/4/2 46/5/2 47/7/2
f 53/1/2 44/4/2 47/7/2
f 52/8/2 53/1/2 47/7/2
f 52/8/2 47/7/2 50/9/2
f 50/9/2 47/7/2 48/10/2
f 52/8/2 50/9/2 51/11/2
f 49/12/2 50/9/2 48/10/2
f 65/1/2 54/3/2 57/6/2
f 57/6/2 54/3/2 55/2/2
f 57/6/2 55/2/2 56/4/2
f 65/1/2 57/6/2 58/5/2
f 65/1/2 58/5/2 61/12/2
f 61/12/2 58/5/2 59/7/2
f 61/12/2 59/7/2 60/10/2
f 65/1/2 61/12/2 62/9/2
f 65/1/2 62/9/2 63/11/2
f 65/1/2 63/11/2 64/8/2
f 71/1/2 66/3/2 67/13/2
f 71/1/2 67/13/2 68/14/2
f 71/1/2 68/14/2 69/15/2
f 71/1/2 69/15/2 70/16/2
f 75/17/2 76/14/2 77/18/2
f 75/17/2 77/18/2 81/19/2
f 81/19/2 77/18/2 78/15/2
f 75/17/2 81/19/2 82/1/2
f 80/16/2 81/19/2 78/15/2
f 75/17/2 82/1/2 80/16/2
f 75/17/2 80/16/2 73/20/2
f 73/20/2 80/16/2 72/3/2
f 72/3/2 80/16/2 78/15/2
f 75/17/2 73/20/2 74/13/2
f 79/21/2 72/3/2 78/15/2
f 14/2/3 55/2/3 54/3/3 13/3/3
f 22/11/3 63/11/3 62/9/3 21/9/3
f 32/20/4 73/20/4 72/3/4 31/3/4
f 16/6/4 57/6/4 56/4/4 15/4/4
f 36/18/3 77/18/3 76/14/3 35/14/3
f 24/1/4 65/1/4 64/8/4 23/8/4
f 1/3/5 42/3/5 53/1/5 12/1/5
f 15/4/6 56/4/6 55/2/6 14/2/6
f 23/8/6 64/8/6 63/11/6 22/11/6
f 25/3/7 66/3/7 71/1/7 30/1/7
f 34/17/4 75/17/4 74/13/4 33/13/4
f 2/2/3 43/2/3 42/3/3 1/3/3
f 17/5/6 58/5/6 57/6/6 16/6/6
f 7/10/8 48/10/8 47/7/8 6/7/8
f 33/13/9 74/13/9 73/20/9 32/20/9
f 37/15/10 78/15/10 77/18/10 36/18/10
f 11/8/4 52/8/4 51/11/4 10/11/4
f 26/13/3 67/13/3 66/3/3 25/3/3
f 31/3/11 72/3/11 79/21/11 38/21/11
f 3/4/12 44/4/12 43/2/12 2/2/12
f 10/11/13 51/11/13 50/9/13 9/9/13
f 38/21/4 79/21/4 78/15/4 37/15/4
f 4/6/14 45/6/14 44/4/14 3/4/14
f 41/1/15 82/1/15 81/19/15 40/19/15
f 9/9/16 50/9/16 49/12/16 8/12/16
f 27/14/6 68/14/6 67/13/6 26/13/6
f 18/7/3 59/7/3 58/5/3 17/5/3
f 40/19/17 81/19/17 80/16/17 39/16/17
f 8/12/4 49/12/4 48/10/4 7/10/4
f 5/5/3 46/5/3 45/6/3 4/6/3
f 20/12/4 61/12/4 60/10/4 19/10/4
f 13/3/7 54/3/7 65/1/7 24/1/7
f 28/15/3 69/15/3 68/14/3 27/14/3
f 19/10/6 60/10/6 59/7/6 18/7/6
f 30/1/4 71/1/4 70/16/4 29/16/4
f 6/7/18 47/7/18 46/5/18 5/5/18
f 39/16/3 80/16/3 82/1/3 41/1/3
f 29/16/6 70/16/6 69/15/6 28/15/6
f 21/9/6 62/9/6 61/12/6 20/12/6
f 35/14/19 76/14/19 75/17/19 34/17/19
f 12/1/20 53/1/20 52/8/20 11/8/20
